# xmcd CD database file
#
# Track frame offsets:
#	150
#	12134
#	28154
#	41965
#	54087
#	67944
#	83491
#	97785
#	110089
#	124298
#	137034
#	152081
#	169278
#	184166
#
# Disc length: 2629 seconds
#
# Revision: 0
# Processed by: cddbd v1.5.2PL0 Copyright (c) Steve Scherf et al.
# Submitted via: CDex 1.50Beta7
#
DISCID=b30a430e
DTITLE=Tonico e Tinoco - Popularidade
DYEAR=1900
DGENRE=Country
TTITLE0=Pingo Dagua
TTITLE1=Cavalo Zaino
TTITLE2=Chico Mineiro
TTITLE3=Moreninha Linda
TTITLE4=Chalana
TTITLE5=Ferreirinha
TTITLE6=Couro de Boi
TTITLE7=Mourão da Porteira
TTITLE8=A Saudade Vai
TTITLE9=Canoeiro
TTITLE10=Sertão do Laranjinha
TTITLE11=Tristeza do Jeca
TTITLE12=Paineira Velha
TTITLE13=Boiadeiro Punho de Aço
EXTD=
EXTT0=
EXTT1=
EXTT2=
EXTT3=
EXTT4=
EXTT5=
EXTT6=
EXTT7=
EXTT8=
EXTT9=
EXTT10=
EXTT11=
EXTT12=
EXTT13=
PLAYORDER=
